<?xml version="1.0" encoding="UTF-8" standalone="no"?>
<!-- Created with Inkscape (http://www.inkscape.org/) -->

<svg
   width="256"
   height="256"
   viewBox="0 0 67.733332 67.733333"
   version="1.1"
   id="svg5"
   inkscape:version="1.2.2 (732a01da63, 2022-12-09)"
   sodipodi:docname="danger.svg"
   xmlns:inkscape="http://www.inkscape.org/namespaces/inkscape"
   xmlns:sodipodi="http://sodipodi.sourceforge.net/DTD/sodipodi-0.dtd"
   xmlns="http://www.w3.org/2000/svg"
   xmlns:svg="http://www.w3.org/2000/svg">
  <sodipodi:namedview
     id="namedview7"
     pagecolor="#505050"
     bordercolor="#ffffff"
     borderopacity="1"
     inkscape:showpageshadow="0"
     inkscape:pageopacity="0"
     inkscape:pagecheckerboard="1"
     inkscape:deskcolor="#505050"
     inkscape:document-units="mm"
     showgrid="false"
     inkscape:zoom="2.1745121"
     inkscape:cx="83.696937"
     inkscape:cy="86.91605"
     inkscape:window-width="1920"
     inkscape:window-height="1017"
     inkscape:window-x="-8"
     inkscape:window-y="-8"
     inkscape:window-maximized="1"
     inkscape:current-layer="layer1" />
  <defs
     id="defs2" />
  <g
     inkscape:label="Capa 1"
     inkscape:groupmode="layer"
     id="layer1">
    <ellipse
       style="fill:#ec0700;fill-opacity:1;stroke:#ffffff;stroke-width:2.54636;stroke-dasharray:none;stroke-opacity:1"
       id="path234"
       cx="33.866665"
       cy="33.866665"
       rx="32.593483"
       ry="32.593487" />
    <path
       id="rect896"
       style="display:none;fill:#ececec;fill-opacity:1;stroke-width:0.190002"
       d="m 52.201872,18.629999 c -0.629355,0 -1.258928,0.241474 -1.741172,0.723719 l -23.853861,23.85346 -9.334207,-9.334207 c -0.964489,-0.964489 -2.517454,-0.964489 -3.481943,0 -0.96449,0.96449 -0.96449,2.517054 0,3.481544 l 11.026089,11.026089 c 0.560427,0.560427 1.319233,0.794539 2.046128,0.703682 0.562783,-0.04476 1.113299,-0.282586 1.545616,-0.714903 L 53.942644,22.835261 c 0.96449,-0.96449 0.96449,-2.517054 10e-7,-3.481543 -0.482246,-0.482245 -1.111417,-0.723719 -1.740773,-0.723719 z" />
    <rect
       style="fill:#ececec;fill-opacity:1;stroke-width:0.245018"
       id="rect896-3"
       width="6.3499999"
       height="26.458334"
       x="14.832871"
       y="-31.480385"
       ry="3.175" />
    <g
       id="g4126"
       transform="matrix(0.83881734,0,0,0.83881734,70.551051,20.242473)">
      <g
         id="g4120"
         transform="matrix(0.82754752,0,0,0.82754752,-28.428326,31.09951)">
        <rect
           style="fill:#ececec;fill-opacity:1;stroke-width:0.18979"
           id="rect896-3-5"
           width="6.3499999"
           height="15.875"
           x="-21.669571"
           y="-30.020287"
           ry="4.5738649"
           rx="4.5738659" />
        <rect
           style="fill:#ececec;fill-opacity:1;stroke-width:0.120034"
           id="rect896-3-5-9"
           width="6.3499999"
           height="6.3499999"
           x="-21.669571"
           y="-11.647396"
           ry="4.5738659"
           rx="4.5738659" />
      </g>
      <path
         id="rect896-3-6"
         style="fill:#ececec;fill-opacity:1;stroke-width:0.346508"
         inkscape:transform-center-x="-35.042344"
         inkscape:transform-center-y="-27.37683"
         d="m -10.930082,43.537394 c -0.01043,0.485138 0.09133,0.978181 0.314193,1.441256 0.249501,0.663058 0.7222825,1.246918 1.3864782,1.630391 L 31.098877,69.892375 c 1.523294,0.879474 3.457212,0.361607 4.336686,-1.161687 0.280666,-0.486126 0.418642,-1.01413 0.427364,-1.53634 0.0054,-0.07603 0.0093,-0.152512 0.0093,-0.22996 V 20.397721 c 0,-1.179755 -0.637768,-2.204328 -1.588017,-2.75177 -0.96594,-0.617636 -2.231785,-0.686807 -3.296956,-0.07183 L -9.3405151,40.857454 c -0.9996619,0.577155 -1.5665409,1.608495 -1.5895669,2.67994 z m 9.3637693,0.163814 31.0885417,-17.948775 v 35.897551 z"
         transform="rotate(90)" />
    </g>
  </g>
</svg>
